<?xml version="1.0" encoding="utf-8"?>
<!-- Generator: Adobe Illustrator 16.0.0, SVG Export Plug-In . SVG Version: 6.00 Build 0)  -->
<!DOCTYPE svg PUBLIC "-//W3C//DTD SVG 1.1//EN" "http://www.w3.org/Graphics/SVG/1.1/DTD/svg11.dtd">
<svg version="1.1" xmlns="http://www.w3.org/2000/svg" xmlns:xlink="http://www.w3.org/1999/xlink" x="0px" y="0px"
	 width="204.09px" height="34.02px" viewBox="0 0 204.09 34.02" enable-background="new 0 0 204.09 34.02" xml:space="preserve">
<g id="Layer_1">
</g>
<g id="Aircraft_Parts">
	<g id="_x38_">
		<path fill="none" stroke="#000000" stroke-width="0.5" stroke-miterlimit="10" d="M194.117,11.115V1.328
			c4.981-0.094,7.561,12.025,7.967,16.613c0.37,4.173,0.002,14.848-7.967,14.747v-7.285H9.978v7.285
			c-7.97,0.102-8.338-10.573-7.967-14.747C2.417,13.353,4.997,1.234,9.978,1.328v9.787H194.117z"/>
		<g>
			<g>
				<line fill="none" stroke="#939598" stroke-width="0.5" stroke-miterlimit="10" x1="9.978" y1="25.402" x2="9.978" y2="22.402"/>
				
					<line fill="none" stroke="#939598" stroke-width="0.5" stroke-miterlimit="10" stroke-dasharray="4.1438,2.0719" x1="9.978" y1="20.33" x2="9.978" y2="15.151"/>
				<line fill="none" stroke="#939598" stroke-width="0.5" stroke-miterlimit="10" x1="9.978" y1="14.115" x2="9.978" y2="11.115"/>
			</g>
		</g>
		<g>
			<g>
				
					<line fill="none" stroke="#939598" stroke-width="0.5" stroke-miterlimit="10" x1="194.117" y1="25.402" x2="194.117" y2="22.402"/>
				
					<line fill="none" stroke="#939598" stroke-width="0.5" stroke-miterlimit="10" stroke-dasharray="4.1438,2.0719" x1="194.117" y1="20.33" x2="194.117" y2="15.151"/>
				
					<line fill="none" stroke="#939598" stroke-width="0.5" stroke-miterlimit="10" x1="194.117" y1="14.115" x2="194.117" y2="11.115"/>
			</g>
		</g>
	</g>
</g>
</svg>
