<?xml version="1.0" encoding="utf-8"?>
<!-- Generator: Adobe Illustrator 16.0.0, SVG Export Plug-In . SVG Version: 6.00 Build 0)  -->
<!DOCTYPE svg PUBLIC "-//W3C//DTD SVG 1.1//EN" "http://www.w3.org/Graphics/SVG/1.1/DTD/svg11.dtd">
<svg version="1.1" xmlns="http://www.w3.org/2000/svg" xmlns:xlink="http://www.w3.org/1999/xlink" x="0px" y="0px"
	 width="130.3896px" height="62.3604px" viewBox="0 0 130.3896 62.3604" enable-background="new 0 0 130.3896 62.3604"
	 xml:space="preserve">
<g id="Livery">
	<g id="Right_Side">
		<path fill="#AE132A" d="M125.7715,48.9912c0,0-1.0283,0.7578-1.3867,0.9863c-9.0488,5.7559-19.3613,8.5684-32.1406,10.0977
			c-0.5371,0.0645-2.1504,0.2637-2.1504,0.2637C69.167,50.999,37.6328,43.2793,0.2822,36.9004V25.0171
			C55.832,31.1523,101.7656,38.9902,125.7715,48.9912z"/>
		<path fill="#AE132A" d="M29.1641,2.0229l49.4746,0.7324c0,0,47.1328,0.6953,51.4727,5.5371l-0.5986,28.1304l-2.4033,10.4863
			C100.1641,36.8008,54.7666,29.083,0.2822,23.1191v-12.646C10.5625,8.7412,20.7314,6.0791,29.1641,2.0229z"/>
	</g>
	<g id="KODIAK_-_Right">
		<path d="M84.9277,37.0107v-6.4424h1.3008v2.8613l2.6289-2.8613h1.748l-2.4258,2.5098l2.5586,3.9326h-1.6836l-1.7715-3.0234
			l-1.0547,1.0771v1.9463H84.9277z"/>
		<path d="M91.1465,33.8291c0-0.6563,0.0977-1.207,0.2949-1.6523c0.1465-0.3281,0.3457-0.6221,0.5996-0.8828
			c0.2529-0.2607,0.5313-0.4541,0.832-0.5801c0.4023-0.1699,0.8652-0.2549,1.3887-0.2549c0.9492,0,1.709,0.2939,2.2793,0.8828
			c0.5693,0.5889,0.8545,1.4082,0.8545,2.457c0,1.04-0.2822,1.8535-0.8486,2.4404c-0.5645,0.5879-1.3203,0.8809-2.2676,0.8809
			c-0.957,0-1.7188-0.292-2.2852-0.876C91.4297,35.6592,91.1465,34.8545,91.1465,33.8291z M92.4863,33.7852
			c0,0.7295,0.1689,1.2822,0.5059,1.6592c0.3369,0.376,0.7646,0.5645,1.2832,0.5645s0.9434-0.1865,1.2764-0.5605
			c0.333-0.373,0.499-0.9336,0.499-1.6807c0-0.7383-0.1621-1.2891-0.4863-1.6523c-0.3232-0.3633-0.7529-0.5449-1.2891-0.5449
			s-0.9688,0.1836-1.2969,0.5518C92.6504,32.4893,92.4863,33.0439,92.4863,33.7852z"/>
		<path d="M98.4063,30.5684h2.377c0.5371,0,0.9453,0.041,1.2266,0.123c0.3779,0.1113,0.7012,0.3096,0.9707,0.5938
			s0.4746,0.6318,0.6152,1.043c0.1406,0.4121,0.2109,0.9199,0.2109,1.5234c0,0.5303-0.0654,0.9873-0.1973,1.3711
			c-0.1611,0.4688-0.3906,0.8477-0.6895,1.1377c-0.2266,0.2197-0.5313,0.3916-0.9141,0.5146
			c-0.2871,0.0908-0.6719,0.1357-1.1523,0.1357h-2.4473V30.5684z M99.707,31.6582v4.2676h0.9707
			c0.3633,0,0.626-0.0205,0.7871-0.0615c0.2109-0.0527,0.3857-0.1426,0.5254-0.2686c0.1387-0.126,0.252-0.333,0.3398-0.6221
			c0.0879-0.2881,0.1328-0.6816,0.1328-1.1797s-0.0449-0.8799-0.1328-1.1465s-0.2109-0.4746-0.3691-0.624
			s-0.3584-0.251-0.6016-0.3037c-0.1816-0.041-0.5371-0.0615-1.0684-0.0615H99.707z"/>
		<path d="M104.8711,37.0107v-6.4424h1.3008v6.4424H104.8711z"/>
		<path d="M113.2207,37.0107h-1.416l-0.5625-1.4629h-2.5742l-0.5322,1.4629h-1.3799l2.5098-6.4424h1.375L113.2207,37.0107z
			 M110.8252,34.4619l-0.8877-2.3906l-0.8701,2.3906H110.8252z"/>
		<path d="M113.9277,37.0107v-6.4424h1.3008v2.8613l2.6279-2.8613h1.749l-2.4258,2.5098l2.5576,3.9326h-1.6826l-1.7715-3.0234
			l-1.0547,1.0771v1.9463H113.9277z"/>
	</g>
	<g id="Exhaust_Stack_-_Right">
		<g>
			<circle fill="#FFFFFF" cx="111.0947" cy="22.0132" r="6.6563"/>
			
				<linearGradient id="SVGID_1_" gradientUnits="userSpaceOnUse" x1="12.6436" y1="22.0132" x2="25.9561" y2="22.0132" gradientTransform="matrix(-1 0 0 1 130.3936 0)">
				<stop  offset="0" style="stop-color:#DEDEDE"/>
				<stop  offset="0.8818" style="stop-color:#000000"/>
			</linearGradient>
			<circle fill="url(#SVGID_1_)" cx="111.0938" cy="22.0132" r="6.6563"/>
			
				<linearGradient id="SVGID_2_" gradientUnits="userSpaceOnUse" x1="26.4253" y1="27.0156" x2="26.4253" y2="17.2568" gradientTransform="matrix(-1 0 0 1 130.3936 0)">
				<stop  offset="0" style="stop-color:#DEDEDE"/>
				<stop  offset="1" style="stop-color:#000000"/>
			</linearGradient>
			<path fill="url(#SVGID_2_)" d="M90.1875,22.0132c0,6.6563,6.1699,4.75,13.7813,4.75s13.7813-2.125,13.7813-4.75
				c0-2.623-6.1699-4.748-13.7813-4.748S90.1875,16.8569,90.1875,22.0132z"/>
			<ellipse cx="93.1406" cy="22.5132" rx="3.5156" ry="4.502"/>
		</g>
	</g>
	<g>
		
			<line fill="none" stroke="#939598" stroke-width="0.25" stroke-miterlimit="10" x1="29.1641" y1="2.0229" x2="29.1641" y2="42.9102"/>
		
			<line fill="none" stroke="#939598" stroke-width="0.25" stroke-miterlimit="10" x1="78.6387" y1="2.7554" x2="78.6387" y2="55.6133"/>
		
			<line fill="none" stroke="#939598" stroke-width="0.25" stroke-miterlimit="10" x1="78.6387" y1="46.9092" x2="48.9795" y2="46.9092"/>
		<line fill="none" stroke="#939598" stroke-miterlimit="10" x1="74.8457" y1="40.2002" x2="74.8457" y2="45.4033"/>
		<line fill="none" stroke="#939598" stroke-miterlimit="10" x1="33.1426" y1="40.2002" x2="33.1426" y2="45.4033"/>
	</g>
	<g id="Cowling_-_Right">
		
			<linearGradient id="SVGID_3_" gradientUnits="userSpaceOnUse" x1="31.5825" y1="56.4775" x2="31.1231" y2="43.3225" gradientTransform="matrix(-1 0 0 1 130.3936 0)">
			<stop  offset="0" style="stop-color:#A1A1A1"/>
			<stop  offset="0.7882" style="stop-color:#000000"/>
		</linearGradient>
		<path opacity="0.2" fill="url(#SVGID_3_)" stroke="#939598" stroke-width="0.25" stroke-miterlimit="10" d="M83.7051,55.9502
			c12.2402,0,15.4688-6.5742,30.9375-6.5742v-2.4668c-17.0098,0-20.8535-4.1074-30.9375-4.1074V55.9502z"/>
	</g>
</g>
<g id="Fuselage_Parts">
	<g id="_x34__-_Right">
		<path fill="none" stroke="#000000" stroke-width="0.5" stroke-miterlimit="10" d="M0.2822,36.8486V10.5698
			c0,0,8.3291-0.3223,28.8818-8.5469l49.4746,0.7324c0,0,43.5781,1.3008,51.4727,5.5371l-0.5986,28.1304
			c0,0-1.3535,10.7598-3.7412,12.5684c-10.4736,7.9297-24.9824,9.666-35.6777,11.3477C61.627,46.6689,0.2822,36.8486,0.2822,36.8486
			z"/>
	</g>
	<g>
	</g>
	<g>
	</g>
	<g>
	</g>
	<g>
	</g>
	<g>
	</g>
	<g>
	</g>
</g>
</svg>
