<?xml version="1.0" encoding="utf-8"?>
<!-- Generator: Adobe Illustrator 16.0.0, SVG Export Plug-In . SVG Version: 6.00 Build 0)  -->
<!DOCTYPE svg PUBLIC "-//W3C//DTD SVG 1.1//EN" "http://www.w3.org/Graphics/SVG/1.1/DTD/svg11.dtd">
<svg version="1.1" xmlns="http://www.w3.org/2000/svg" xmlns:xlink="http://www.w3.org/1999/xlink" x="0px" y="0px"
	 width="566.9297px" height="107.7197px" viewBox="0 0 566.9297 107.7197" enable-background="new 0 0 566.9297 107.7197"
	 xml:space="preserve">
<g id="Livery">
	<g id="Left_Side_1_">
		<path fill="#D8C193" d="M423.5625,67.041c-84.2832,5.252-252.356,11.0254-324.3867,21.0664
			C189.019,68.5449,350.8105,67.041,423.5625,67.041z"/>
		<path fill="#D8C193" d="M389.4199,55.2285c-84.2813,5.252-260.0205,19.3164-330.5571,34.3555
			C144.1997,63.0508,316.6699,55.2285,389.4199,55.2285z"/>
		<g>
			<path d="M393.7617,64.3574l-0.8164-19.3096l6.2568-0.2637c2.3711-0.1006,3.9209-0.0693,4.6484,0.0928
				c1.1191,0.2432,2.0723,0.835,2.8594,1.7734c0.7881,0.9385,1.2139,2.1768,1.2783,3.7119
				c0.0508,1.1855-0.1221,2.1924-0.5186,3.0176c-0.3965,0.8271-0.916,1.4834-1.5596,1.9736
				c-0.6436,0.4883-1.3047,0.8223-1.9834,1.001c-0.9229,0.2236-2.2666,0.3721-4.0322,0.4473l-2.542,0.1074l0.3076,7.2842
				L393.7617,64.3574z M396.9824,48.1504l0.2314,5.4795l2.1338-0.0908c1.5371-0.0645,2.5596-0.209,3.0703-0.4336
				c0.5088-0.2227,0.9014-0.5566,1.1777-1c0.2764-0.4414,0.4014-0.9482,0.3779-1.5205c-0.0303-0.7012-0.2607-1.2725-0.6924-1.7119
				c-0.4326-0.4385-0.9668-0.7031-1.6045-0.7891c-0.4688-0.0684-1.4053-0.0732-2.8105-0.0137L396.9824,48.1504z"/>
			<path d="M423.293,59.665l0.1445,3.4385l-12.9736,0.5488c0.085-1.3057,0.4551-2.5557,1.1084-3.749
				c0.6533-1.1924,1.9756-2.7949,3.9668-4.8047c1.6025-1.625,2.5811-2.7227,2.9346-3.292c0.4775-0.7852,0.7002-1.5508,0.6689-2.2969
				c-0.0352-0.8262-0.2842-1.4502-0.7451-1.876c-0.4629-0.4238-1.085-0.6211-1.8662-0.5879
				c-0.7725,0.0332-1.3779,0.292-1.8145,0.7764c-0.4375,0.4854-0.668,1.2686-0.6924,2.3516l-3.7041-0.2129
				c0.1338-2.0469,0.7607-3.5371,1.8828-4.4746c1.1221-0.9346,2.5518-1.4395,4.29-1.5127c1.9063-0.0801,3.4248,0.3691,4.5576,1.3506
				c1.1318,0.9814,1.7305,2.2363,1.7949,3.7646c0.0371,0.8691-0.085,1.7031-0.3623,2.5029
				c-0.2793,0.7988-0.7383,1.6426-1.3779,2.5322c-0.4238,0.5898-1.1963,1.4453-2.3193,2.5645
				c-1.123,1.1221-1.833,1.8643-2.1289,2.2275c-0.2979,0.3662-0.5352,0.7188-0.7148,1.0596L423.293,59.665z"/>
			<path d="M426.0918,57.832l-0.1563-3.7012l7.2705-0.3076l0.1563,3.7012L426.0918,57.832z"/>
			<path d="M435.7793,62.582l-0.8154-19.3096l3.793-0.1602l8.4482,12.5605l-0.5449-12.8945l3.6221-0.1533l0.8164,19.3096
				l-3.9121,0.166l-8.3164-12.2637l0.5322,12.5918L435.7793,62.582z"/>
			<path d="M459.5684,61.5771l-0.6777-16.043l-5.7305,0.2422l-0.1377-3.2666l15.3447-0.6484l0.1387,3.2666l-5.7168,0.2412
				l0.6777,16.043L459.5684,61.5771z"/>
			<path d="M471.6992,61.0645l-0.8154-19.3096l14.3174-0.6055l0.1387,3.2666l-10.4189,0.4404l0.1807,4.2803l9.6943-0.4092
				l0.1377,3.2539l-9.6943,0.4092l0.2217,5.2549l10.7881-0.4561l0.1367,3.2539L471.6992,61.0645z"/>
		</g>
	</g>
	<g id="Rear_Cargo_Door">
		<path fill="none" stroke="#939598" stroke-width="0.5" stroke-miterlimit="10" d="M365.8047,88.1074
			c0,7.4551-0.3613,7.9785-7.8164,7.9785h-56.6719c-7.4551,0-7.5117-0.5234-7.5117-7.9785v-63.25
			c0-7.4551,0.0566-8.459,7.5117-8.459h56.6719c7.4551,0,7.8164,1.0039,7.8164,8.459V88.1074z"/>
	</g>
	<g id="Front_Door_-_Left">
		<path fill="none" stroke="#939598" stroke-width="0.5" stroke-miterlimit="10" d="M187.7012,84.5762
			c0,3.5313-3.3853,6.9199-8.3071,6.9199l-38.812-0.5918c-3.7969-0.2813-7.6299-2.7969-7.6299-7.8242V41.7813
			c0-2.9082,2.6128-4.8828,3.833-6.4238c3.7969-4.7988,20.1089-18.959,20.1089-18.959c2.5083-1.498,5.2031-2.5508,9.8438-1.5723
			l15.8906,5.2031c3.52,1.125,5.0728,3.1875,5.0728,6.4688V84.5762z"/>
	</g>
	<g>
		
			<line fill="none" stroke="#939598" stroke-width="0.25" stroke-miterlimit="10" x1="103.1543" y1="33.1797" x2="103.1543" y2="96.6289"/>
		
			<line fill="none" stroke="#939598" stroke-width="0.25" stroke-miterlimit="10" x1="53.6797" y1="33.9121" x2="53.6797" y2="92.7793"/>
		
			<line fill="none" stroke="#939598" stroke-width="0.25" stroke-miterlimit="10" x1="53.6797" y1="78.0664" x2="103.1543" y2="78.0664"/>
		<line fill="none" stroke="#939598" stroke-miterlimit="10" x1="57.4727" y1="71.3574" x2="57.4727" y2="76.5605"/>
		<line fill="none" stroke="#939598" stroke-miterlimit="10" x1="99.1758" y1="71.3574" x2="99.1758" y2="76.5605"/>
	</g>
</g>
<g id="Fuselage_Parts">
	<g id="_x32__-_Left">
		<g>
			<path fill="none" stroke="#000000" stroke-width="0.5" stroke-miterlimit="10" d="M559.9395,18.2246v10.1055h4.7832
				c-4.7832,6.707-11.9531,15.2402-19.2598,20.4063c-3.3242,2.3516-14.8125,7.1836-14.8125,7.1836l-2.5488,14.168l-64.7852,14.1094
				l-10.0293-2.1387c0,0-33.1035,11.4941-44.3906,14.4648C398.5625,99.2422,367,105.002,367,105.002l-255.2461-7.9727
				c-38.9038-1.6445-60.0264-4.7578-60.0264-4.7578C36.9668,91.6074,17.02,88.0781,6.5459,80.1484
				c-2.3872-1.8086-3.7407-12.5684-3.7407-12.5684L2.2065,39.4492c7.8945-4.2363,51.4731-5.5371,51.4731-5.5371l49.4746-0.7324
				c20.2354-22.5957,49.687-31.125,67.8306-30.4258l173.0718,3.9902l155.8223,9.5762L559.9395,18.2246z"/>
			<path fill="none" stroke="#939598" stroke-width="0.25" stroke-miterlimit="10" d="M255.0518,93.3164l13.6914,0.8047
				c0.3516-3.7617-16.4844-6.7119-22.8818-7.3965c-5.8232-0.6221-20.7715-1.2197-20.9829,4.8203l10.1909,0.5986l0,0l-10.1909-0.5986
				c-0.4976,6.0225,14.4185,7.1777,20.2739,7.2412c6.4346,0.0693,23.499-0.8887,23.5908-4.665L255.0518,93.3164L255.0518,93.3164z"
				/>
			<path fill="none" stroke="#939598" stroke-width="0.25" stroke-miterlimit="10" d="M210.3013,89.584h8.3379
				c0.0801-4.0176-10.2441-6.0996-14.1528-6.4277c-3.5557-0.2988-12.6499,0-12.5635,6.4277h6.2065l0,0h-6.2065
				c-0.0864,6.4277,9.0078,6.7246,12.5635,6.4258c3.9087-0.3281,14.2329-2.4082,14.1528-6.4258H210.3013L210.3013,89.584z"/>
			<g>
				<g>
					
						<line fill="none" stroke="#000000" stroke-width="0.5" stroke-miterlimit="10" x1="499.8789" y1="26.4258" x2="505.876" y2="26.6157"/>
					
						<line fill="none" stroke="#000000" stroke-width="0.5" stroke-miterlimit="10" stroke-dasharray="13.7402,6.8701" x1="512.7422" y1="26.8335" x2="550.5088" y2="28.0313"/>
					
						<line fill="none" stroke="#000000" stroke-width="0.5" stroke-miterlimit="10" x1="553.9424" y1="28.1401" x2="559.9395" y2="28.3301"/>
				</g>
			</g>
			
				<line fill="none" stroke="#000000" stroke-width="0.5" stroke-miterlimit="10" x1="499.8789" y1="16.3203" x2="499.8789" y2="26.4258"/>
			<g>
				<g>
					
						<line fill="none" stroke="#000000" stroke-width="0.5" stroke-miterlimit="10" x1="453.2871" y1="82.0586" x2="458.9717" y2="80.1377"/>
					
						<line fill="none" stroke="#000000" stroke-width="0.5" stroke-miterlimit="10" stroke-dasharray="10.7169,5.3584" x1="464.0479" y1="78.4229" x2="522.4277" y2="58.6982"/>
					
						<line fill="none" stroke="#000000" stroke-width="0.5" stroke-miterlimit="10" x1="524.9658" y1="57.8408" x2="530.6504" y2="55.9199"/>
				</g>
			</g>
		</g>
	</g>
	<g>
	</g>
	<g>
	</g>
	<g>
	</g>
	<g>
	</g>
	<g>
	</g>
	<g>
	</g>
</g>
</svg>
