<?xml version="1.0" encoding="utf-8"?>
<!-- Generator: Adobe Illustrator 16.0.0, SVG Export Plug-In . SVG Version: 6.00 Build 0)  -->
<!DOCTYPE svg PUBLIC "-//W3C//DTD SVG 1.1//EN" "http://www.w3.org/Graphics/SVG/1.1/DTD/svg11.dtd">
<svg version="1.1" xmlns="http://www.w3.org/2000/svg" xmlns:xlink="http://www.w3.org/1999/xlink" x="0px" y="0px"
	 width="731.3398px" height="113.3896px" viewBox="0 0 731.3398 113.3896" enable-background="new 0 0 731.3398 113.3896"
	 xml:space="preserve">
<g id="Livery">
	<path fill="#AE132A" d="M22.6626,95.2979l-0.4243-85.1953C4.8413,12.2705,1.0215,74.0137,1.8311,95.2979H22.6626z"/>
	<path fill="#AE132A" d="M708.6748,95.2979l0.4238-85.1953c17.3984,2.168,21.2168,63.9111,20.4082,85.1953H708.6748z"/>
	<g>
		<path d="M549.3164,61.1699V32.1787h9.3926c3.5605,0,5.8809,0.145,6.9609,0.4351c1.6621,0.4351,3.0527,1.3813,4.1738,2.8379
			c1.1191,1.457,1.6797,3.3389,1.6797,5.646c0,1.7798-0.3223,3.2759-0.9688,4.4888s-1.4668,2.1655-2.4609,2.8574
			c-0.9961,0.6924-2.0078,1.1504-3.0371,1.3745c-1.3965,0.2769-3.4199,0.4155-6.0703,0.4155h-3.8164v10.936H549.3164z
			 M555.1699,37.083v8.2266h3.2031c2.3066,0,3.8496-0.1514,4.627-0.4546c0.7793-0.3032,1.3887-0.7778,1.8301-1.4238
			s0.6621-1.3975,0.6621-2.2544c0-1.0547-0.3105-1.9248-0.9297-2.6104s-1.4043-1.1143-2.3535-1.2856
			c-0.6973-0.1318-2.1016-0.1978-4.2109-0.1978H555.1699z"/>
		<path d="M593.8691,56.0083v5.1616h-19.4785c0.2109-1.9512,0.8438-3.8003,1.8984-5.5474s3.1387-4.064,6.25-6.9512
			c2.5039-2.3335,4.0391-3.9155,4.6074-4.7461c0.7637-1.147,1.1465-2.2808,1.1465-3.4014c0-1.2393-0.334-2.1914-0.998-2.8574
			c-0.666-0.6655-1.5859-0.9985-2.7598-0.9985c-1.1602,0-2.082,0.3491-2.7676,1.0479s-1.082,1.8589-1.1875,3.4805l-5.5371-0.5537
			c0.3301-3.0586,1.3652-5.2534,3.1055-6.585s3.916-1.9976,6.5254-1.9976c2.8613,0,5.1094,0.7715,6.7441,2.314
			s2.4512,3.4604,2.4512,5.7544c0,1.3052-0.2344,2.5479-0.7012,3.7275c-0.4688,1.1802-1.2109,2.416-2.2246,3.708
			c-0.6738,0.8569-1.8867,2.0898-3.6387,3.6982c-1.7539,1.6084-2.8652,2.6763-3.332,3.2036
			c-0.4688,0.5273-0.8477,1.0415-1.1387,1.5425H593.8691z"/>
		<path d="M598.1816,53.4375v-5.5571h10.916v5.5571H598.1816z"/>
		<path d="M612.4004,61.1699V32.1787h5.6953l11.8652,19.3604V32.1787h5.4375v28.9912h-5.873l-11.6875-18.9058v18.9058H612.4004z"/>
		<path d="M648.1133,61.1699V37.083h-8.6016v-4.9043h23.0371v4.9043h-8.582v24.0869H648.1133z"/>
		<path d="M666.3262,61.1699V32.1787h21.4961v4.9043h-15.6426v6.4272h14.5547v4.8843h-14.5547v7.8906h16.1973v4.8848H666.3262z"/>
	</g>
</g>
<g id="Aircraft_Parts">
	<g id="_x35_">
		<path fill="none" stroke="#000000" stroke-width="0.5" stroke-miterlimit="10" d="M365.6689,111.7969h210.1758L708.5732,93.418
			h18.4063c0.7158-20.25-2.6592-79.2695-18.0313-81.332L575.8477,1.5879v8.9565H365.6689h-0.001H155.4897V1.5879L22.3882,12.0859
			C7.0161,14.1484,3.6411,73.168,4.3564,93.418h18.4067l132.7275,18.3789H365.668H365.6689z"/>
		<g>
			<g>
				
					<line fill="none" stroke="#000000" stroke-width="0.5" stroke-miterlimit="10" x1="365.668" y1="111.7969" x2="365.667" y2="13.3687"/>
				<g>
					<polygon points="365.667,10.5444 367.293,14.5239 365.667,13.5796 364.041,14.5239 					"/>
				</g>
			</g>
		</g>
		<g>
			<g>
				
					<line fill="none" stroke="#000000" stroke-width="0.5" stroke-miterlimit="10" x1="333.7041" y1="87.2783" x2="333.7041" y2="111.7979"/>
				
					<line fill="none" stroke="#000000" stroke-width="0.5" stroke-miterlimit="10" x1="155.3901" y1="79.1133" x2="155.3901" y2="111.7979"/>
				
					<line fill="none" stroke="#000000" stroke-width="0.5" stroke-miterlimit="10" x1="22.7632" y1="66.3047" x2="22.7632" y2="93.418"/>
			</g>
			<g>
				<g>
					<g>
						
							<line fill="none" stroke="#939598" stroke-width="0.5" stroke-miterlimit="10" x1="22.7632" y1="66.3047" x2="28.7354" y2="66.8818"/>
						
							<line fill="none" stroke="#939598" stroke-width="0.5" stroke-miterlimit="10" stroke-dasharray="12.7625,6.3813" x1="35.0869" y1="67.4951" x2="146.2422" y2="78.2295"/>
						
							<line fill="none" stroke="#939598" stroke-width="0.5" stroke-miterlimit="10" x1="149.418" y1="78.5361" x2="155.3901" y2="79.1133"/>
					</g>
				</g>
				<g>
					
						<line fill="none" stroke="#939598" stroke-width="0.5" stroke-miterlimit="10" stroke-dasharray="12,6" x1="333.7041" y1="87.2783" x2="244.5474" y2="87.2783"/>
					
						<line fill="none" stroke="#939598" stroke-width="0.5" stroke-miterlimit="10" stroke-dasharray="12,6" x1="155.3901" y1="87.2783" x2="244.5474" y2="87.2783"/>
				</g>
			</g>
		</g>
		<g>
			<g>
				
					<line fill="none" stroke="#000000" stroke-width="0.5" stroke-miterlimit="10" x1="397.6348" y1="87.2783" x2="397.6348" y2="111.7979"/>
				
					<line fill="none" stroke="#000000" stroke-width="0.5" stroke-miterlimit="10" x1="575.9492" y1="79.1133" x2="575.9492" y2="111.7979"/>
				
					<line fill="none" stroke="#000000" stroke-width="0.5" stroke-miterlimit="10" x1="708.5762" y1="66.3047" x2="708.5762" y2="93.418"/>
			</g>
			<g>
				<g>
					<g>
						
							<line fill="none" stroke="#939598" stroke-width="0.5" stroke-miterlimit="10" x1="708.5762" y1="66.3047" x2="702.6035" y2="66.8818"/>
						
							<line fill="none" stroke="#939598" stroke-width="0.5" stroke-miterlimit="10" stroke-dasharray="12.7625,6.3813" x1="696.252" y1="67.4951" x2="585.0977" y2="78.2295"/>
						
							<line fill="none" stroke="#939598" stroke-width="0.5" stroke-miterlimit="10" x1="581.9219" y1="78.5361" x2="575.9492" y2="79.1133"/>
					</g>
				</g>
				<g>
					
						<line fill="none" stroke="#939598" stroke-width="0.5" stroke-miterlimit="10" stroke-dasharray="12,6" x1="397.6348" y1="87.2783" x2="486.792" y2="87.2783"/>
					
						<line fill="none" stroke="#939598" stroke-width="0.5" stroke-miterlimit="10" stroke-dasharray="12,6" x1="575.9492" y1="87.2783" x2="486.792" y2="87.2783"/>
				</g>
			</g>
		</g>
	</g>
	<g>
	</g>
	<g>
	</g>
	<g>
	</g>
	<g>
	</g>
	<g>
	</g>
	<g>
	</g>
	<g>
	</g>
</g>
</svg>
