<?xml version="1.0" encoding="utf-8"?>
<!-- Generator: Adobe Illustrator 16.0.0, SVG Export Plug-In . SVG Version: 6.00 Build 0)  -->
<!DOCTYPE svg PUBLIC "-//W3C//DTD SVG 1.1//EN" "http://www.w3.org/Graphics/SVG/1.1/DTD/svg11.dtd">
<svg version="1.1" xmlns="http://www.w3.org/2000/svg" xmlns:xlink="http://www.w3.org/1999/xlink" x="0px" y="0px"
	 width="566.93px" height="107.72px" viewBox="0 0 566.93 107.72" enable-background="new 0 0 566.93 107.72" xml:space="preserve">
<g id="Livery">
	<path fill="#D8C193" d="M144.576,66.983c83.908,5.226,251.234,10.975,322.946,20.972C378.077,68.479,217.004,66.983,144.576,66.983
		z"/>
	<path fill="#D8C193" d="M178.566,55.224c83.907,5.226,258.865,19.23,329.089,34.201C422.698,63.011,250.994,55.224,178.566,55.224z
		"/>
	<text transform="matrix(0.9992 0.0408 -0.0408 0.9992 80.1748 60.4648)" font-family="'Arial-BoldMT'" font-size="26.88">P2-NTE</text>
	<g id="Front_Door_-_Right">
		<path fill="none" stroke="#939598" stroke-width="0.5" stroke-miterlimit="10" d="M379.389,84.439
			c0,3.516,3.371,6.889,8.271,6.889l38.64-0.589c3.78-0.279,7.596-2.784,7.596-7.789V41.835c0-2.896-2.602-4.862-3.815-6.396
			c-3.78-4.776-20.021-18.875-20.021-18.875c-2.497-1.491-5.18-2.54-9.8-1.565l-15.82,5.18c-3.504,1.12-5.051,3.173-5.051,6.44
			V84.439z"/>
	</g>
	<g>
		
			<line fill="none" stroke="#939598" stroke-width="0.25" stroke-miterlimit="10" x1="463.562" y1="33.271" x2="463.562" y2="96.438"/>
		<line fill="none" stroke="#939598" stroke-width="0.25" stroke-miterlimit="10" x1="512.815" y1="34" x2="512.815" y2="92.605"/>
		
			<line fill="none" stroke="#939598" stroke-width="0.25" stroke-miterlimit="10" x1="512.815" y1="77.958" x2="463.562" y2="77.958"/>
		<line fill="none" stroke="#939598" stroke-miterlimit="10" x1="509.04" y1="71.279" x2="509.04" y2="76.46"/>
		<line fill="none" stroke="#939598" stroke-miterlimit="10" x1="467.522" y1="71.279" x2="467.522" y2="76.46"/>
	</g>
</g>
<g id="Fuselage_Parts">
	<g id="_x32__-_Right">
		<g>
			<path fill="none" stroke="#000000" stroke-width="0.5" stroke-miterlimit="10" d="M8.218,18.382v10.061H3.456
				c4.762,6.676,11.9,15.173,19.175,20.315c3.309,2.341,14.747,7.151,14.747,7.151l2.536,14.105l64.499,14.048l9.984-2.131
				c0,0,32.956,11.443,44.193,14.4c10.289,2.708,41.71,8.441,41.71,8.441l254.113-7.936c38.731-1.639,59.761-4.738,59.761-4.738
				c14.694-0.661,34.553-4.174,44.979-12.068c2.378-1.801,3.725-12.513,3.725-12.513l0.596-28.007
				C555.613,35.295,512.229,34,512.229,34l-49.254-0.729c-20.146-22.495-49.467-30.986-67.53-30.291L223.141,6.954L68.013,16.487
				L8.218,18.382z"/>
			<path fill="none" stroke="#939598" stroke-width="0.25" stroke-miterlimit="10" d="M356.303,89.425h-8.301
				c-0.08-4.001,10.197-6.072,14.089-6.398c3.541-0.297,12.594-0.002,12.509,6.398h-6.18l0,0h6.18
				c0.085,6.398-8.968,6.696-12.509,6.398c-3.892-0.328-14.169-2.399-14.089-6.398H356.303L356.303,89.425z"/>
			<g>
				<g>
					
						<line fill="none" stroke="#000000" stroke-width="0.5" stroke-miterlimit="10" x1="68.013" y1="26.547" x2="62.016" y2="26.737"/>
					
						<line fill="none" stroke="#000000" stroke-width="0.5" stroke-miterlimit="10" stroke-dasharray="13.6641,6.8321" x1="55.187" y1="26.954" x2="17.629" y2="28.145"/>
					
						<line fill="none" stroke="#000000" stroke-width="0.5" stroke-miterlimit="10" x1="14.215" y1="28.253" x2="8.218" y2="28.443"/>
				</g>
			</g>
			
				<line fill="none" stroke="#000000" stroke-width="0.5" stroke-miterlimit="10" x1="68.013" y1="16.487" x2="68.013" y2="26.547"/>
			<g>
				<g>
					
						<line fill="none" stroke="#000000" stroke-width="0.5" stroke-miterlimit="10" x1="114.396" y1="81.933" x2="108.712" y2="80.012"/>
					
						<line fill="none" stroke="#000000" stroke-width="0.5" stroke-miterlimit="10" stroke-dasharray="10.6609,5.3305" x1="103.662" y1="78.306" x2="45.587" y2="58.684"/>
					
						<line fill="none" stroke="#000000" stroke-width="0.5" stroke-miterlimit="10" x1="43.062" y1="57.831" x2="37.378" y2="55.91"/>
				</g>
			</g>
		</g>
	</g>
</g>
</svg>
