<?xml version="1.0" encoding="utf-8"?>
<!-- Generator: Adobe Illustrator 16.0.0, SVG Export Plug-In . SVG Version: 6.00 Build 0)  -->
<!DOCTYPE svg PUBLIC "-//W3C//DTD SVG 1.1//EN" "http://www.w3.org/Graphics/SVG/1.1/DTD/svg11.dtd">
<svg version="1.1" xmlns="http://www.w3.org/2000/svg" xmlns:xlink="http://www.w3.org/1999/xlink" x="0px" y="0px"
	 width="566.93px" height="107.72px" viewBox="0 0 566.93 107.72" enable-background="new 0 0 566.93 107.72" xml:space="preserve">
<g id="Layer_1">
</g>
<g id="Livery">
	<path fill="#D8C193" d="M422.939,66.983C339.031,72.21,171.706,77.958,99.995,87.955C189.439,68.479,350.512,66.983,422.939,66.983
		z"/>
	<path fill="#D8C193" d="M388.949,55.224c-83.907,5.227-258.865,19.23-329.088,34.201C144.819,63.011,316.522,55.224,388.949,55.224
		z"/>
	<text transform="matrix(0.9991 -0.0422 0.0422 0.9991 391.3057 64.3809)" font-family="'Arial-BoldMT'" font-size="26.88">P2-NTE</text>
	<g id="Rear_Cargo_Door">
		<path fill="none" stroke="#939598" stroke-width="0.5" stroke-miterlimit="10" d="M365.439,87.955
			c0,7.422-0.361,7.943-7.783,7.943h-56.42c-7.423,0-7.478-0.521-7.478-7.943V24.987c0-7.422,0.055-8.422,7.478-8.422h56.42
			c7.422,0,7.783,1,7.783,8.422V87.955z"/>
	</g>
	<g id="Front_Door_-_Left">
		<path fill="none" stroke="#939598" stroke-width="0.5" stroke-miterlimit="10" d="M188.127,84.439c0,3.516-3.371,6.89-8.271,6.89
			l-38.64-0.59c-3.78-0.279-7.596-2.784-7.596-7.788V41.836c0-2.896,2.601-4.862,3.816-6.396c3.78-4.776,20.02-18.875,20.02-18.875
			c2.497-1.491,5.18-2.54,9.8-1.565l15.82,5.18c3.504,1.12,5.051,3.173,5.051,6.44V84.439z"/>
	</g>
	<g>
		
			<line fill="none" stroke="#939598" stroke-width="0.25" stroke-miterlimit="10" x1="103.956" y1="33.272" x2="103.956" y2="96.438"/>
		<line fill="none" stroke="#939598" stroke-width="0.25" stroke-miterlimit="10" x1="54.701" y1="34" x2="54.701" y2="92.606"/>
		
			<line fill="none" stroke="#939598" stroke-width="0.25" stroke-miterlimit="10" x1="54.701" y1="77.958" x2="103.956" y2="77.958"/>
		<line fill="none" stroke="#939598" stroke-miterlimit="10" x1="58.477" y1="71.279" x2="58.477" y2="76.46"/>
		<line fill="none" stroke="#939598" stroke-miterlimit="10" x1="99.995" y1="71.279" x2="99.995" y2="76.46"/>
	</g>
</g>
<g id="Fuselage_Parts">
	<g id="_x32__-_Left">
		<g>
			<path fill="none" stroke="#000000" stroke-width="0.5" stroke-miterlimit="10" d="M558.711,18.383v10.061h4.762
				c-4.762,6.676-11.899,15.173-19.176,20.315c-3.307,2.341-14.746,7.151-14.746,7.151l-2.537,14.105l-64.498,14.048l-9.983-2.131
				c0,0-32.956,11.442-44.193,14.4c-10.289,2.708-41.71,8.441-41.71,8.441l-254.112-7.937c-38.731-1.638-59.76-4.737-59.76-4.737
				c-14.695-0.661-34.553-4.174-44.98-12.068C5.4,78.231,4.053,67.52,4.053,67.52L3.457,39.513C11.316,35.295,54.701,34,54.701,34
				l49.254-0.729c20.146-22.495,49.466-30.986,67.53-30.291l172.302,3.973l155.129,9.533L558.711,18.383z"/>
			<path fill="none" stroke="#939598" stroke-width="0.25" stroke-miterlimit="10" d="M210.627,89.425h8.301
				c0.08-4-10.199-6.071-14.09-6.398c-3.54-0.298-12.593-0.001-12.507,6.398h6.179l0,0h-6.179
				c-0.086,6.399,8.968,6.696,12.507,6.398c3.892-0.327,14.17-2.398,14.09-6.398H210.627L210.627,89.425z"/>
			<g>
				<g>
					
						<line fill="none" stroke="#000000" stroke-width="0.5" stroke-miterlimit="10" x1="498.916" y1="26.547" x2="504.913" y2="26.738"/>
					
						<line fill="none" stroke="#000000" stroke-width="0.5" stroke-miterlimit="10" stroke-dasharray="13.6643,6.8321" x1="511.742" y1="26.954" x2="549.3" y2="28.146"/>
					
						<line fill="none" stroke="#000000" stroke-width="0.5" stroke-miterlimit="10" x1="552.714" y1="28.253" x2="558.711" y2="28.444"/>
				</g>
			</g>
			
				<line fill="none" stroke="#000000" stroke-width="0.5" stroke-miterlimit="10" x1="498.916" y1="16.487" x2="498.916" y2="26.547"/>
			<g>
				<g>
					
						<line fill="none" stroke="#000000" stroke-width="0.5" stroke-miterlimit="10" x1="452.532" y1="81.933" x2="458.217" y2="80.012"/>
					
						<line fill="none" stroke="#000000" stroke-width="0.5" stroke-miterlimit="10" stroke-dasharray="10.6609,5.3305" x1="463.267" y1="78.306" x2="521.342" y2="58.684"/>
					
						<line fill="none" stroke="#000000" stroke-width="0.5" stroke-miterlimit="10" x1="523.866" y1="57.831" x2="529.551" y2="55.91"/>
				</g>
			</g>
		</g>
	</g>
</g>
</svg>
