<?xml version="1.0" encoding="utf-8"?>
<!-- Generator: Adobe Illustrator 16.0.0, SVG Export Plug-In . SVG Version: 6.00 Build 0)  -->
<!DOCTYPE svg PUBLIC "-//W3C//DTD SVG 1.1//EN" "http://www.w3.org/Graphics/SVG/1.1/DTD/svg11.dtd">
<svg version="1.1" xmlns="http://www.w3.org/2000/svg" xmlns:xlink="http://www.w3.org/1999/xlink" x="0px" y="0px"
	 width="731.3398px" height="147.4004px" viewBox="0 0 731.3398 147.4004" enable-background="new 0 0 731.3398 147.4004"
	 xml:space="preserve">
<g id="Livery">
	<path fill="#AE132A" d="M22.7212,113.5039l-0.4243-85.1958c-17.397,2.168-21.2168,63.9116-20.4072,85.1958H22.7212z"/>
	<path fill="#AE132A" d="M708.7334,113.5039l0.4238-85.1958c17.3984,2.168,21.2168,63.9116,20.4082,85.1958H708.7334z"/>
	<g>
		<path d="M549.375,79.375V50.3843h9.3926c3.5605,0,5.8809,0.145,6.9609,0.4351c1.6621,0.4351,3.0527,1.3813,4.1738,2.8379
			c1.1191,1.457,1.6797,3.3389,1.6797,5.646c0,1.7798-0.3223,3.2759-0.9688,4.4888s-1.4668,2.1655-2.4609,2.8574
			c-0.9961,0.6924-2.0078,1.1504-3.0371,1.3745c-1.3965,0.2769-3.4199,0.4155-6.0703,0.4155h-3.8164V79.375H549.375z
			 M555.2285,55.2886v8.2266h3.2031c2.3066,0,3.8496-0.1514,4.627-0.4546c0.7793-0.3032,1.3887-0.7778,1.8301-1.4238
			s0.6621-1.3975,0.6621-2.2544c0-1.0547-0.3105-1.9248-0.9297-2.6104s-1.4043-1.1143-2.3535-1.2856
			c-0.6973-0.1318-2.1016-0.1978-4.2109-0.1978H555.2285z"/>
		<path d="M593.9277,74.2139v5.1611h-19.4785c0.2109-1.9512,0.8438-3.7998,1.8984-5.5469s3.1387-4.064,6.25-6.9512
			c2.5039-2.3335,4.0391-3.9155,4.6074-4.7461c0.7637-1.147,1.1465-2.2808,1.1465-3.4014c0-1.2393-0.334-2.1914-0.998-2.8574
			c-0.666-0.6655-1.5859-0.9985-2.7598-0.9985c-1.1602,0-2.082,0.3491-2.7676,1.0479s-1.082,1.8589-1.1875,3.4805l-5.5371-0.5537
			c0.3301-3.0586,1.3652-5.2534,3.1055-6.585s3.916-1.9976,6.5254-1.9976c2.8613,0,5.1094,0.7715,6.7441,2.314
			s2.4512,3.4604,2.4512,5.7544c0,1.3052-0.2344,2.5479-0.7012,3.7275c-0.4688,1.1802-1.2109,2.416-2.2246,3.708
			c-0.6738,0.8569-1.8867,2.0898-3.6387,3.6982c-1.7539,1.6084-2.8652,2.6763-3.332,3.2036
			c-0.4688,0.5273-0.8477,1.0415-1.1387,1.5425H593.9277z"/>
		<path d="M598.2402,71.6431v-5.5571h10.916v5.5571H598.2402z"/>
		<path d="M612.459,79.375V50.3843h5.6953l11.8652,19.3604V50.3843h5.4375V79.375h-5.873l-11.6875-18.9053V79.375H612.459z"/>
		<path d="M648.1719,79.375V55.2886h-8.6016v-4.9043h23.0371v4.9043h-8.582V79.375H648.1719z"/>
		<path d="M666.3848,79.375V50.3843h21.4961v4.9043h-15.6426v6.4272h14.5547v4.8843h-14.5547v7.8906h16.1973v4.8843H666.3848z"/>
	</g>
</g>
<g id="Aircraft_Parts">
	<g id="_x36_">
		
			<line fill="none" stroke="#000000" stroke-width="0.5" stroke-miterlimit="10" x1="365.625" y1="0.3564" x2="365.625" y2="147.0449"/>
		<g>
			<path fill="none" stroke="#939598" stroke-width="0.25" stroke-miterlimit="10" d="M212.2461,53.5024v8.3379
				c-4.0176,0.0801-6.0986-10.2441-6.4272-14.1528c-0.2988-3.5562-0.001-12.6499,6.4272-12.5635v6.2065l0,0V35.124
				c6.4282-0.0864,6.7256,9.0073,6.4268,12.5635c-0.3286,3.9087-2.4092,14.2329-6.4268,14.1528V53.5024L212.2461,53.5024z"/>
			<path fill="none" stroke="#939598" stroke-width="0.25" stroke-miterlimit="10" d="M519.0059,53.502v8.3379
				c4.0186,0.0801,6.0996-10.2441,6.4268-14.1533c0.2988-3.5557,0.002-12.6494-6.4268-12.563v6.2065l0,0v-6.2065
				c-6.4277-0.0864-6.7266,9.0073-6.4277,12.563c0.3301,3.9092,2.4111,14.2334,6.4277,14.1533V53.502L519.0059,53.502z"/>
		</g>
		<g>
			<g>
				
					<line fill="none" stroke="#000000" stroke-width="0.5" stroke-miterlimit="10" x1="365.625" y1="130.0039" x2="365.625" y2="31.5718"/>
				<g>
					<polygon points="365.625,28.7476 367.251,32.7271 365.625,31.7827 363.999,32.7271 					"/>
				</g>
			</g>
		</g>
		<path fill="none" stroke="#000000" stroke-width="0.5" stroke-miterlimit="10" d="M365.7275,28.75h210.1787v-8.9565
			l133.1006,10.498c15.3721,2.0625,18.7471,61.0825,18.0313,81.3325h-18.4063V84.5107l-132.627,12.8086v8.165H397.6904
			l0.0029,24.5195h-15.9336h-15.9316h-0.2031h-15.9307h-15.9316v-24.5195h-178.314v-8.165L22.8218,84.5107v27.1133H4.415
			c-0.7153-20.25,2.6597-79.27,18.0317-81.3325l133.1016-10.498V28.75h210.1782H365.7275z"/>
		<g>
			<g>
				<g>
					<g>
						
							<line fill="none" stroke="#939598" stroke-width="0.5" stroke-miterlimit="10" x1="22.519" y1="114.7031" x2="19.519" y2="114.7031"/>
						
							<line fill="none" stroke="#939598" stroke-width="0.5" stroke-miterlimit="10" stroke-dasharray="5.2456,5.2456" x1="14.2734" y1="114.7031" x2="6.4053" y2="114.7031"/>
						<path fill="none" stroke="#939598" stroke-width="0.5" stroke-miterlimit="10" d="M3.7822,114.7031h-3
							c-0.0356-0.9268-0.063-1.9277-0.0806-2.9971"/>
						<path fill="none" stroke="#939598" stroke-width="0.5" stroke-miterlimit="10" stroke-dasharray="5.8593,5.8593" d="
							M0.6943,105.8496c0.2876-23.4258,4.1792-65.2822,16.1489-76.1646"/>
						<path fill="none" stroke="#939598" stroke-width="0.5" stroke-miterlimit="10" d="M19.2285,27.9961
							c0.9082-0.4702,1.8569-0.7744,2.8477-0.8955"/>
					</g>
				</g>
				<g>
					<g>
						<path fill="none" stroke="#939598" stroke-width="0.5" stroke-miterlimit="10" d="M709.9492,27.1006
							c0.9863,0.125,1.9307,0.4429,2.832,0.9365"/>
						<path fill="none" stroke="#939598" stroke-width="0.5" stroke-miterlimit="10" stroke-dasharray="5.8378,5.8378" d="
							M717.0254,31.98c10.4785,14.1929,13.6514,55.4399,13.6357,76.8081"/>
						<path fill="none" stroke="#939598" stroke-width="0.5" stroke-miterlimit="10" d="M730.6377,111.7051
							c-0.0166,1.0693-0.043,2.0713-0.0781,2.998h-3"/>
						
							<line fill="none" stroke="#939598" stroke-width="0.5" stroke-miterlimit="10" stroke-dasharray="5.013,5.013" x1="722.5469" y1="114.7031" x2="715.0273" y2="114.7031"/>
						
							<line fill="none" stroke="#939598" stroke-width="0.5" stroke-miterlimit="10" x1="712.5205" y1="114.7031" x2="709.5205" y2="114.7031"/>
					</g>
				</g>
			</g>
			<g>
				<g>
					<g>
						
							<line fill="none" stroke="#939598" stroke-width="0.5" stroke-miterlimit="10" x1="333.7627" y1="130.0039" x2="333.7627" y2="133.0039"/>
						
							<line fill="none" stroke="#939598" stroke-width="0.5" stroke-miterlimit="10" x1="333.7627" y1="141.1768" x2="333.7627" y2="144.1768"/>
					</g>
				</g>
				<g>
					<g>
						
							<line fill="none" stroke="#939598" stroke-width="0.5" stroke-miterlimit="10" x1="397.6934" y1="130.0039" x2="397.6934" y2="133.0039"/>
						
							<line fill="none" stroke="#939598" stroke-width="0.5" stroke-miterlimit="10" x1="397.6934" y1="141.1768" x2="397.6934" y2="144.1768"/>
					</g>
				</g>
				<g>
					<g>
						
							<line fill="none" stroke="#939598" stroke-width="0.5" stroke-miterlimit="10" x1="333.7627" y1="144.1768" x2="336.7627" y2="144.1768"/>
						
							<line fill="none" stroke="#939598" stroke-width="0.5" stroke-miterlimit="10" stroke-dasharray="6.4367,6.4367" x1="343.1992" y1="144.1768" x2="391.4746" y2="144.1768"/>
						
							<line fill="none" stroke="#939598" stroke-width="0.5" stroke-miterlimit="10" x1="394.6934" y1="144.1768" x2="397.6934" y2="144.1768"/>
					</g>
				</g>
			</g>
		</g>
	</g>
	<g>
	</g>
	<g>
	</g>
	<g>
	</g>
	<g>
	</g>
	<g>
	</g>
	<g>
	</g>
	<g>
	</g>
</g>
</svg>
