<?xml version="1.0" encoding="utf-8"?>
<!-- Generator: Adobe Illustrator 16.0.0, SVG Export Plug-In . SVG Version: 6.00 Build 0)  -->
<!DOCTYPE svg PUBLIC "-//W3C//DTD SVG 1.1//EN" "http://www.w3.org/Graphics/SVG/1.1/DTD/svg11.dtd">
<svg version="1.1" xmlns="http://www.w3.org/2000/svg" xmlns:xlink="http://www.w3.org/1999/xlink" x="0px" y="0px"
	 width="566.9297px" height="107.7197px" viewBox="0 0 566.9297 107.7197" enable-background="new 0 0 566.9297 107.7197"
	 xml:space="preserve">
<g id="Livery">
	<g id="Right_Side_1_">
		<path fill="#D8C193" d="M143.6611,67.041c84.2822,5.251,252.3564,11.0234,324.3877,21.0654
			C378.2051,68.5449,216.4121,67.041,143.6611,67.041z"/>
		<path fill="#D8C193" d="M177.8032,55.2295c84.2813,5.25,260.021,19.3154,330.5581,34.3535
			C423.0234,63.0508,250.5532,55.2295,177.8032,55.2295z"/>
		<g>
			<path d="M80.9443,60.585l0.7876-19.311l6.2568,0.2554c2.3711,0.0967,3.9121,0.2559,4.625,0.4785
				c1.0947,0.3354,1.9946,1.0034,2.7021,2.0034c0.7065,1.0015,1.0283,2.27,0.9658,3.8071
				c-0.0483,1.1851-0.3042,2.1733-0.7666,2.9634c-0.4648,0.7905-1.0366,1.4023-1.7183,1.8364
				c-0.6821,0.4341-1.3682,0.7119-2.0591,0.8335c-0.939,0.146-2.2905,0.1836-4.0562,0.1113l-2.541-0.1035l-0.2969,7.2847
				L80.9443,60.585z M85.498,44.6997l-0.2236,5.48l2.1338,0.0869c1.5352,0.0625,2.5679,0.0034,3.0947-0.1772
				c0.5254-0.1807,0.9448-0.4805,1.2563-0.8989c0.3125-0.418,0.4805-0.9131,0.5034-1.4839c0.0288-0.7021-0.1548-1.29-0.5493-1.7637
				c-0.3931-0.4736-0.9043-0.7803-1.5313-0.9199c-0.4634-0.1069-1.396-0.1895-2.8013-0.2466L85.498,44.6997z"/>
			<path d="M110.7622,58.3584l-0.1401,3.4375l-12.9746-0.5293c0.1924-1.2939,0.6636-2.5088,1.415-3.6436
				c0.7485-1.1348,2.1997-2.6211,4.3511-4.4604c1.7314-1.4863,2.7979-2.4985,3.1973-3.0366
				c0.541-0.7427,0.8267-1.4878,0.8574-2.2344c0.0337-0.8252-0.1621-1.4683-0.5884-1.9307
				c-0.4243-0.4614-1.0288-0.708-1.8101-0.7397c-0.7725-0.0317-1.397,0.1758-1.8721,0.6226
				c-0.4761,0.4473-0.7715,1.209-0.8857,2.2861l-3.6733-0.519c0.3027-2.0288,1.0527-3.4624,2.248-4.3018
				c1.1958-0.8403,2.6621-1.2246,4.4014-1.1533c1.9043,0.0776,3.3813,0.6523,4.4282,1.7241s1.5396,2.3716,1.4775,3.8999
				c-0.0356,0.8691-0.2256,1.6909-0.5693,2.4634c-0.3447,0.7739-0.8711,1.5771-1.583,2.4102
				c-0.4707,0.5522-1.3125,1.3408-2.5244,2.3643c-1.2119,1.0244-1.98,1.7051-2.3066,2.0439
				c-0.3252,0.3389-0.5918,0.6709-0.7988,0.9961L110.7622,58.3584z"/>
			<path d="M113.7041,56.7627l0.1509-3.7017l7.2715,0.2964l-0.1509,3.7012L113.7041,56.7627z"/>
			<path d="M122.9639,62.2998l0.7876-19.3115l3.7939,0.1548l7.3774,13.2183l0.5259-12.896l3.623,0.1479l-0.7876,19.3115
				l-3.9131-0.1602l-7.2705-12.9111l-0.5137,12.5938L122.9639,62.2998z"/>
			<path d="M146.7549,63.2695l0.6543-16.0444l-5.7305-0.2334l0.1333-3.2666l15.3467,0.626l-0.1333,3.2666l-5.7178-0.2334
				l-0.6543,16.0444L146.7549,63.2695z"/>
			<path d="M158.8867,63.7646l0.7876-19.311l14.3184,0.584l-0.1333,3.2666l-10.4189-0.4248l-0.1748,4.2813l9.6953,0.3955
				l-0.1323,3.2534l-9.6953-0.3955l-0.2148,5.2559l10.7881,0.4404l-0.1323,3.2539L158.8867,63.7646z"/>
		</g>
	</g>
	<g id="Front_Door_-_Right">
		<path fill="none" stroke="#939598" stroke-width="0.5" stroke-miterlimit="10" d="M379.5215,84.5762
			c0,3.5303,3.3867,6.9199,8.3086,6.9199l38.8125-0.5918c3.7969-0.2813,7.6289-2.7979,7.6289-7.8242V41.7822
			c0-2.9092-2.6133-4.8833-3.832-6.4248c-3.7969-4.7979-20.1094-18.959-20.1094-18.959c-2.5078-1.4976-5.2031-2.5513-9.8438-1.5723
			l-15.8906,5.2031c-3.5195,1.125-5.0742,3.187-5.0742,6.4688V84.5762z"/>
	</g>
	<g>
		
			<line fill="none" stroke="#939598" stroke-width="0.25" stroke-miterlimit="10" x1="464.0703" y1="33.1797" x2="464.0703" y2="96.627"/>
		
			<line fill="none" stroke="#939598" stroke-width="0.25" stroke-miterlimit="10" x1="513.5449" y1="33.9116" x2="513.5449" y2="92.7793"/>
		
			<line fill="none" stroke="#939598" stroke-width="0.25" stroke-miterlimit="10" x1="513.5449" y1="78.0645" x2="464.0703" y2="78.0645"/>
		<line fill="none" stroke="#939598" stroke-miterlimit="10" x1="509.752" y1="71.3574" x2="509.752" y2="76.5605"/>
		<line fill="none" stroke="#939598" stroke-miterlimit="10" x1="468.0488" y1="71.3574" x2="468.0488" y2="76.5605"/>
	</g>
</g>
<g id="Fuselage_Parts">
	<g id="_x32__-_Right">
		<g>
			<path fill="none" stroke="#000000" stroke-width="0.5" stroke-miterlimit="10" d="M6.6948,18.2251v10.1055H1.9116
				c4.7832,6.707,11.9531,15.2402,19.2598,20.4063c3.3242,2.3516,14.8125,7.1831,14.8125,7.1831l2.5488,14.168l64.7852,14.1094
				l10.0293-2.1387c0,0,33.1035,11.4941,44.3906,14.4648c10.3335,2.7188,41.896,8.4785,41.896,8.4785l255.2461-7.9727
				c38.9043-1.6445,60.0264-4.7578,60.0264-4.7578c14.7598-0.6641,34.707-4.1934,45.1816-12.123
				c2.3867-1.8086,3.7402-12.5684,3.7402-12.5684l0.5986-28.1304c-7.8945-4.2363-51.4736-5.5371-51.4736-5.5371l-49.4736-0.7324
				c-20.2344-22.5957-49.6875-31.125-67.8301-30.4258L222.5771,6.7446L66.7554,16.3208L6.6948,18.2251z"/>
			<path fill="none" stroke="#939598" stroke-width="0.25" stroke-miterlimit="10" d="M311.582,93.3164l-13.6914,0.8047
				c-0.3516-3.7617,16.4844-6.7119,22.8818-7.3965c5.8232-0.6221,20.7715-1.2197,20.9824,4.8203l-10.1904,0.5986l0,0l10.1904-0.5986
				c0.498,6.0225-14.418,7.1777-20.2734,7.2412c-6.4346,0.0693-23.499-0.8887-23.5908-4.665L311.582,93.3164L311.582,93.3164z"/>
			<path fill="none" stroke="#939598" stroke-width="0.25" stroke-miterlimit="10" d="M356.333,89.584h-8.3379
				c-0.0801-4.0176,10.2441-6.0996,14.1523-6.4277c3.5557-0.2988,12.6504,0,12.5635,6.4277h-6.2061l0,0h6.2061
				c0.0869,6.4277-9.0078,6.7246-12.5635,6.4258c-3.9082-0.3281-14.2324-2.4082-14.1523-6.4258H356.333L356.333,89.584z"/>
			<g>
				<g>
					
						<line fill="none" stroke="#000000" stroke-width="0.5" stroke-miterlimit="10" x1="66.7554" y1="26.4263" x2="60.7583" y2="26.6162"/>
					
						<line fill="none" stroke="#000000" stroke-width="0.5" stroke-miterlimit="10" stroke-dasharray="13.7402,6.8701" x1="53.8916" y1="26.834" x2="16.125" y2="28.0317"/>
					
						<line fill="none" stroke="#000000" stroke-width="0.5" stroke-miterlimit="10" x1="12.6919" y1="28.1406" x2="6.6948" y2="28.3306"/>
				</g>
			</g>
			
				<line fill="none" stroke="#000000" stroke-width="0.5" stroke-miterlimit="10" x1="66.7554" y1="16.3208" x2="66.7554" y2="26.4263"/>
			<g>
				<g>
					
						<line fill="none" stroke="#000000" stroke-width="0.5" stroke-miterlimit="10" x1="113.3472" y1="82.0586" x2="107.6631" y2="80.1377"/>
					
						<line fill="none" stroke="#000000" stroke-width="0.5" stroke-miterlimit="10" stroke-dasharray="10.7169,5.3584" x1="102.5864" y1="78.4229" x2="44.2065" y2="58.6982"/>
					
						<line fill="none" stroke="#000000" stroke-width="0.5" stroke-miterlimit="10" x1="41.668" y1="57.8408" x2="35.9839" y2="55.9199"/>
				</g>
			</g>
		</g>
	</g>
	<g>
	</g>
	<g>
	</g>
	<g>
	</g>
	<g>
	</g>
	<g>
	</g>
	<g>
	</g>
</g>
</svg>
