<?xml version="1.0" encoding="utf-8"?>
<!-- Generator: Adobe Illustrator 16.0.0, SVG Export Plug-In . SVG Version: 6.00 Build 0)  -->
<!DOCTYPE svg PUBLIC "-//W3C//DTD SVG 1.1//EN" "http://www.w3.org/Graphics/SVG/1.1/DTD/svg11.dtd">
<svg version="1.1" id="Aircraft_Parts" xmlns="http://www.w3.org/2000/svg" xmlns:xlink="http://www.w3.org/1999/xlink" x="0px"
	 y="0px" width="204.0938px" height="34.0195px" viewBox="0 0 204.0938 34.0195" enable-background="new 0 0 204.0938 34.0195"
	 xml:space="preserve">
<g id="_x38_">
	<path fill="none" stroke="#000000" stroke-width="0.5" stroke-miterlimit="10" d="M194.5273,11.0884V1.2578
		c5.002-0.0942,7.5938,12.0786,8.002,16.687c0.3711,4.1929,0.002,14.9155-8.002,14.813v-7.3184H9.5659v7.3184
		c-8.0049,0.1025-8.375-10.6201-8.0029-14.813c0.4087-4.6084,3-16.7813,8.0029-16.687v9.8306H194.5273z"/>
	<g>
		<g>
			
				<line fill="none" stroke="#939598" stroke-width="0.5" stroke-miterlimit="10" x1="9.5659" y1="25.4395" x2="9.5659" y2="22.4395"/>
			
				<line fill="none" stroke="#939598" stroke-width="0.5" stroke-miterlimit="10" stroke-dasharray="4.1755,2.0878" x1="9.5659" y1="20.3516" x2="9.5659" y2="15.1323"/>
			
				<line fill="none" stroke="#939598" stroke-width="0.5" stroke-miterlimit="10" x1="9.5659" y1="14.0884" x2="9.5659" y2="11.0884"/>
		</g>
	</g>
	<g>
		<g>
			
				<line fill="none" stroke="#939598" stroke-width="0.5" stroke-miterlimit="10" x1="194.5273" y1="25.4395" x2="194.5273" y2="22.4395"/>
			
				<line fill="none" stroke="#939598" stroke-width="0.5" stroke-miterlimit="10" stroke-dasharray="4.1755,2.0878" x1="194.5273" y1="20.3516" x2="194.5273" y2="15.1323"/>
			
				<line fill="none" stroke="#939598" stroke-width="0.5" stroke-miterlimit="10" x1="194.5273" y1="14.0884" x2="194.5273" y2="11.0884"/>
		</g>
	</g>
</g>
<g>
</g>
<g>
</g>
<g>
</g>
<g>
</g>
<g>
</g>
<g>
</g>
</svg>
