<?xml version="1.0" encoding="utf-8"?>
<!-- Generator: Adobe Illustrator 16.0.0, SVG Export Plug-In . SVG Version: 6.00 Build 0)  -->
<!DOCTYPE svg PUBLIC "-//W3C//DTD SVG 1.1//EN" "http://www.w3.org/Graphics/SVG/1.1/DTD/svg11.dtd">
<svg version="1.1" xmlns="http://www.w3.org/2000/svg" xmlns:xlink="http://www.w3.org/1999/xlink" x="0px" y="0px"
	 width="130.3896px" height="62.3604px" viewBox="0 0 130.3896 62.3604" enable-background="new 0 0 130.3896 62.3604"
	 xml:space="preserve">
<g id="Livery">
	<g id="Left_Side_1_">
		<path fill="#AE132A" d="M4.6216,48.9912c0,0,1.0288,0.7578,1.3877,0.9863c9.0483,5.7559,19.3613,8.5684,32.1401,10.0977
			c0.5376,0.0645,2.1509,0.2637,2.1509,0.2637c20.9263-9.3398,52.4604-17.0596,89.811-23.4385V25.0171
			C74.5615,31.1523,28.6284,38.9902,4.6216,48.9912z"/>
		<path fill="#AE132A" d="M101.2295,2.0229L51.7554,2.7554c0,0-47.1338,0.6953-51.4731,5.5371l0.5986,28.1304l2.4028,10.4863
			c26.9458-10.1084,72.3433-17.8262,126.8276-23.79v-12.646C119.8311,8.7412,109.6621,6.0791,101.2295,2.0229z"/>
	</g>
	<g id="KODIAK_-_Left_1_">
		<path d="M11.3105,37.0107v-6.4424h1.3008v2.8613l2.6279-2.8613h1.749l-2.4258,2.5098l2.5576,3.9326H15.437l-1.771-3.0234
			l-1.0547,1.0771v1.9463H11.3105z"/>
		<path d="M17.5288,33.8291c0-0.6563,0.0981-1.207,0.2944-1.6523c0.1465-0.3281,0.3462-0.6221,0.5996-0.8828
			s0.5313-0.4541,0.833-0.5801c0.4014-0.1699,0.8643-0.2549,1.3887-0.2549c0.9492,0,1.7085,0.2939,2.2783,0.8828
			s0.855,1.4082,0.855,2.457c0,1.04-0.2827,1.8535-0.8481,2.4404c-0.5654,0.5879-1.3213,0.8809-2.2676,0.8809
			c-0.958,0-1.7197-0.292-2.2852-0.876C17.8115,35.6592,17.5288,34.8545,17.5288,33.8291z M18.8691,33.7852
			c0,0.7295,0.1685,1.2822,0.5054,1.6592c0.3369,0.376,0.7646,0.5645,1.2832,0.5645s0.9438-0.1865,1.2764-0.5605
			c0.3325-0.373,0.499-0.9336,0.499-1.6807c0-0.7383-0.1621-1.2891-0.4858-1.6523s-0.7534-0.5449-1.2896-0.5449
			s-0.9683,0.1836-1.2964,0.5518C19.0332,32.4893,18.8691,33.0439,18.8691,33.7852z"/>
		<path d="M24.7886,30.5684h2.3774c0.5361,0,0.9448,0.041,1.2261,0.123c0.3779,0.1113,0.7017,0.3096,0.9712,0.5938
			s0.4746,0.6318,0.6152,1.043c0.1406,0.4121,0.2109,0.9199,0.2109,1.5234c0,0.5303-0.0659,0.9873-0.1978,1.3711
			c-0.1611,0.4688-0.3911,0.8477-0.6899,1.1377c-0.2256,0.2197-0.5303,0.3916-0.9141,0.5146
			c-0.2871,0.0908-0.6709,0.1357-1.1514,0.1357h-2.4478V30.5684z M26.0894,31.6582v4.2676h0.9712
			c0.3633,0,0.6255-0.0205,0.7866-0.0615c0.2109-0.0527,0.3857-0.1426,0.5249-0.2686s0.2529-0.333,0.3408-0.6221
			c0.0879-0.2881,0.1318-0.6816,0.1318-1.1797s-0.0439-0.8799-0.1318-1.1465s-0.2109-0.4746-0.3691-0.624
			s-0.3589-0.251-0.6021-0.3037c-0.1816-0.041-0.5376-0.0615-1.0679-0.0615H26.0894z"/>
		<path d="M31.2529,37.0107v-6.4424h1.3008v6.4424H31.2529z"/>
		<path d="M39.6025,37.0107h-1.415l-0.5625-1.4629h-2.5752l-0.5317,1.4629h-1.3799l2.5093-6.4424h1.3755L39.6025,37.0107z
			 M37.2075,34.4619l-0.8877-2.3906l-0.8701,2.3906H37.2075z"/>
		<path d="M40.3101,37.0107v-6.4424h1.3008v2.8613l2.6279-2.8613h1.749l-2.4258,2.5098l2.5576,3.9326h-1.6831l-1.771-3.0234
			l-1.0547,1.0771v1.9463H40.3101z"/>
	</g>
	<g id="Exhaust_Stack_-_Left">
		<g>
			<circle fill="#FFFFFF" cx="19.2988" cy="22.0132" r="6.6563"/>
			<linearGradient id="SVGID_1_" gradientUnits="userSpaceOnUse" x1="12.6431" y1="22.0132" x2="25.9556" y2="22.0132">
				<stop  offset="0" style="stop-color:#DEDEDE"/>
				<stop  offset="0.8818" style="stop-color:#000000"/>
			</linearGradient>
			<circle fill="url(#SVGID_1_)" cx="19.2993" cy="22.0132" r="6.6563"/>
			<linearGradient id="SVGID_2_" gradientUnits="userSpaceOnUse" x1="26.4243" y1="27.0161" x2="26.4243" y2="17.2573">
				<stop  offset="0" style="stop-color:#DEDEDE"/>
				<stop  offset="1" style="stop-color:#000000"/>
			</linearGradient>
			<path fill="url(#SVGID_2_)" d="M40.2056,22.0132c0,6.6563-6.1699,4.75-13.7813,4.75s-13.7813-2.125-13.7813-4.75
				c0-2.623,6.1699-4.748,13.7813-4.748S40.2056,16.8569,40.2056,22.0132z"/>
			<ellipse cx="37.2524" cy="22.5132" rx="3.5156" ry="4.502"/>
		</g>
	</g>
	
		<line fill="none" stroke="#939598" stroke-width="0.25" stroke-miterlimit="10" x1="101.2295" y1="2.0229" x2="101.2295" y2="42.9102"/>
	
		<line fill="none" stroke="#939598" stroke-width="0.25" stroke-miterlimit="10" x1="51.7554" y1="2.7554" x2="51.7554" y2="55.6133"/>
	
		<line fill="none" stroke="#939598" stroke-width="0.25" stroke-miterlimit="10" x1="51.7554" y1="46.9092" x2="81.4141" y2="46.9092"/>
	<line fill="none" stroke="#939598" stroke-miterlimit="10" x1="55.5483" y1="40.2002" x2="55.5483" y2="45.4033"/>
	<line fill="none" stroke="#939598" stroke-miterlimit="10" x1="97.251" y1="40.2002" x2="97.251" y2="45.4033"/>
	<g id="Cowling_-_Left">
		<linearGradient id="SVGID_3_" gradientUnits="userSpaceOnUse" x1="31.5835" y1="56.4775" x2="31.1241" y2="43.3225">
			<stop  offset="0" style="stop-color:#A1A1A1"/>
			<stop  offset="0.7882" style="stop-color:#000000"/>
		</linearGradient>
		<path opacity="0.2" fill="url(#SVGID_3_)" stroke="#939598" stroke-width="0.25" stroke-miterlimit="10" d="M46.689,55.9502
			c-12.2402,0-15.4688-6.5742-30.9375-6.5742v-2.4668c17.0098,0,20.853-4.1074,30.9375-4.1074V55.9502z"/>
		<g>
			<line fill="none" stroke="#000000" stroke-miterlimit="10" x1="89.3994" y1="20.4897" x2="89.3994" y2="27.9644"/>
			<line fill="none" stroke="#000000" stroke-miterlimit="10" x1="87.1494" y1="18.4272" x2="87.1494" y2="30.0229"/>
			<line fill="none" stroke="#000000" stroke-miterlimit="10" x1="82.6494" y1="17.2612" x2="82.6494" y2="31.2866"/>
			<line fill="none" stroke="#000000" stroke-miterlimit="10" x1="84.8984" y1="17.5073" x2="84.8984" y2="30.9448"/>
			<line fill="none" stroke="#000000" stroke-miterlimit="10" x1="80.4004" y1="17.2632" x2="80.4004" y2="31.2866"/>
			<line fill="none" stroke="#000000" stroke-miterlimit="10" x1="78.1514" y1="17.5933" x2="78.1514" y2="30.8901"/>
			<line fill="none" stroke="#000000" stroke-miterlimit="10" x1="73.6504" y1="18.6401" x2="73.6504" y2="29.8979"/>
			<line fill="none" stroke="#000000" stroke-miterlimit="10" x1="75.9004" y1="18.0112" x2="75.9004" y2="30.5015"/>
			<line fill="none" stroke="#000000" stroke-miterlimit="10" x1="71.4004" y1="19.5698" x2="71.4004" y2="28.9897"/>
			<line fill="none" stroke="#000000" stroke-miterlimit="10" x1="69.1504" y1="21.0444" x2="69.1504" y2="27.5093"/>
		</g>
	</g>
</g>
<g id="Fuselage_Parts">
	<g id="_x34__-_Left">
		<path fill="none" stroke="#000000" stroke-width="0.5" stroke-miterlimit="10" d="M130.1113,36.8486V10.5698
			c0,0-8.3291-0.3223-28.8818-8.5469L51.7554,2.7554c0,0-43.5786,1.3008-51.4731,5.5371l0.5986,28.1304
			c0,0,1.3535,10.7598,3.7407,12.5684c10.4741,7.9297,24.9824,9.666,35.6787,11.3477
			C68.7666,46.6689,130.1113,36.8486,130.1113,36.8486z"/>
	</g>
	<g>
	</g>
	<g>
	</g>
	<g>
	</g>
	<g>
	</g>
	<g>
	</g>
	<g>
	</g>
</g>
</svg>
