<?xml version="1.0" encoding="utf-8"?>
<!-- Generator: Adobe Illustrator 16.0.0, SVG Export Plug-In . SVG Version: 6.00 Build 0)  -->
<!DOCTYPE svg PUBLIC "-//W3C//DTD SVG 1.1//EN" "http://www.w3.org/Graphics/SVG/1.1/DTD/svg11.dtd">
<svg version="1.1" xmlns="http://www.w3.org/2000/svg" xmlns:xlink="http://www.w3.org/1999/xlink" x="0px" y="0px"
	 width="731.34px" height="147.4px" viewBox="0 0 731.34 147.4" enable-background="new 0 0 731.34 147.4" xml:space="preserve">
<g id="Livery">
	<path fill="#AE132A" d="M24.187,112.135l-0.422-84.817C6.445,29.476,2.642,90.945,3.448,112.135H24.187z"/>
	<path fill="#AE132A" d="M707.15,112.135l0.422-84.817c17.321,2.159,21.123,63.628,20.318,84.817H707.15z"/>
	<text transform="matrix(1 0 0 1 545.5674 78.1592)" font-family="'Arial-BoldMT'" font-size="40.32">P2-NTE</text>
</g>
<g id="Aircraft_Parts">
	<g id="_x35_">
		<path fill="none" stroke="#000000" stroke-width="0.5" stroke-miterlimit="10" d="M365.669,128.561h209.243l132.138-18.298h18.325
			c0.713-20.159-2.647-78.917-17.951-80.97l-132.51-10.452v8.917H365.669h-0.001H156.424v-8.917L23.915,29.292
			C8.611,31.346,5.25,90.104,5.963,110.263h18.325l132.138,18.298H365.669L365.669,128.561z"/>
		<g>
			<g>
				
					<line fill="none" stroke="#000000" stroke-width="0.5" stroke-miterlimit="10" x1="365.668" y1="128.561" x2="365.667" y2="30.582"/>
				<g>
					<polygon points="365.667,27.758 367.294,31.737 365.667,30.793 364.042,31.737 					"/>
				</g>
			</g>
		</g>
	</g>
</g>
</svg>
