<?xml version="1.0" encoding="utf-8"?>
<!-- Generator: Adobe Illustrator 16.0.0, SVG Export Plug-In . SVG Version: 6.00 Build 0)  -->
<!DOCTYPE svg PUBLIC "-//W3C//DTD SVG 1.1//EN" "http://www.w3.org/Graphics/SVG/1.1/DTD/svg11.dtd">
<svg version="1.1" id="Fuselage_Parts" xmlns="http://www.w3.org/2000/svg" xmlns:xlink="http://www.w3.org/1999/xlink" x="0px"
	 y="0px" width="119.0552px" height="175.7476px" viewBox="0 0 119.0552 175.7476" enable-background="new 0 0 119.0552 175.7476"
	 xml:space="preserve">
<g id="Main_Wheel">
	<g>
		<radialGradient id="SVGID_1_" cx="60.02" cy="152.4233" r="21.2593" gradientUnits="userSpaceOnUse">
			<stop  offset="0.1232" style="stop-color:#BCBEC0"/>
			<stop  offset="1" style="stop-color:#231F20"/>
		</radialGradient>
		<circle fill="url(#SVGID_1_)" cx="60.0203" cy="152.4233" r="21.2595"/>
		<radialGradient id="SVGID_2_" cx="60.022" cy="152.4233" r="9.2129" gradientUnits="userSpaceOnUse">
			<stop  offset="0.202" style="stop-color:#58595B"/>
			<stop  offset="0.9113" style="stop-color:#FFFFFF"/>
		</radialGradient>
		<path fill="url(#SVGID_2_)" d="M69.2339,152.4233c0,5.084-4.124,9.2139-9.2124,9.2139c-5.0894,0-9.2119-4.1299-9.2119-9.2139
			s4.1226-9.2139,9.2119-9.2139C65.1099,143.2095,69.2339,147.3394,69.2339,152.4233z"/>
		<circle fill="#FFFFFF" cx="60.0215" cy="152.4233" r="2.8345"/>
		<circle fill="#231F20" cx="60.0212" cy="152.4233" r="1.4167"/>
		<g>
			<circle fill="#231F20" cx="60.0212" cy="146.4233" r="0.4958"/>
			<circle fill="#231F20" cx="57.0215" cy="147.2271" r="0.4961"/>
			<circle fill="#231F20" cx="54.8262" cy="149.4224" r="0.4961"/>
			<circle fill="#231F20" cx="54.022" cy="152.4224" r="0.4961"/>
			<circle fill="#231F20" cx="54.8257" cy="155.4224" r="0.4964"/>
			<path fill="#231F20" d="M56.5918,157.3706c0.1367-0.2373,0.4414-0.3213,0.6787-0.1826c0.2363,0.1367,0.3174,0.4414,0.1807,0.6777
				s-0.4404,0.3184-0.6777,0.1826C56.5371,157.9087,56.4551,157.606,56.5918,157.3706z"/>
			<circle fill="#231F20" cx="60.0212" cy="158.4219" r="0.4958"/>
			<circle fill="#231F20" cx="63.021" cy="157.6182" r="0.4964"/>
			<circle fill="#231F20" cx="65.2168" cy="155.4219" r="0.4963"/>
			<circle fill="#231F20" cx="66.02" cy="152.4224" r="0.4961"/>
			<path fill="#231F20" d="M65.4653,149.8521c-0.2373,0.1367-0.543,0.0576-0.6797-0.1807c-0.1357-0.2373-0.0537-0.542,0.1816-0.6777
				c0.2373-0.1367,0.542-0.0557,0.6797,0.1807C65.7817,149.4126,65.7007,149.7163,65.4653,149.8521z"/>
			<path fill="#231F20" d="M63.4507,147.4741c-0.1367,0.2373-0.4414,0.3213-0.6787,0.1836
				c-0.2363-0.1377-0.3174-0.4424-0.1816-0.6777c0.1377-0.2373,0.4414-0.3193,0.6787-0.1836
				C63.5054,146.936,63.5874,147.2388,63.4507,147.4741z"/>
		</g>
	</g>
</g>
<g id="Main_Landing_Gear_Strut">
	<g>
		<radialGradient id="SVGID_3_" cx="87.3149" cy="94.7935" r="21.2588" gradientUnits="userSpaceOnUse">
			<stop  offset="0.1232" style="stop-color:#BCBEC0"/>
			<stop  offset="1" style="stop-color:#231F20"/>
		</radialGradient>
		<circle fill="url(#SVGID_3_)" cx="87.3145" cy="94.7935" r="21.2593"/>
		<radialGradient id="SVGID_4_" cx="87.3159" cy="94.7935" r="9.2129" gradientUnits="userSpaceOnUse">
			<stop  offset="0.202" style="stop-color:#58595B"/>
			<stop  offset="0.9113" style="stop-color:#FFFFFF"/>
		</radialGradient>
		<path fill="url(#SVGID_4_)" d="M96.5278,94.7935c0,5.084-4.125,9.2139-9.2129,9.2139c-5.0898,0-9.2109-4.1299-9.2109-9.2139
			s4.1211-9.2134,9.2109-9.2134C92.4028,85.5801,96.5278,89.7095,96.5278,94.7935z"/>
		<circle fill="#FFFFFF" cx="87.3149" cy="94.7935" r="2.834"/>
		<circle fill="#231F20" cx="87.3149" cy="94.7935" r="1.417"/>
		<rect x="66.0552" y="70.6406" fill="#FFFFFF" width="42.5186" height="24.1528"/>
		<linearGradient id="SVGID_5_" gradientUnits="userSpaceOnUse" x1="87.3149" y1="92.3442" x2="87.3149" y2="94.7935">
			<stop  offset="0" style="stop-color:#FFFFFF"/>
			<stop  offset="0.7685" style="stop-color:#231F20"/>
		</linearGradient>
		<rect x="85.8979" y="92.3442" fill="url(#SVGID_5_)" width="2.834" height="2.4492"/>
	</g>
	<g>
		<path fill="none" stroke="#231F20" stroke-width="0.5" stroke-miterlimit="10" d="M66.0552,94.9058h16.0469L78.7661,9.8667
			h-8.8613c-0.1514-7.7061,15.7715-8.0635,21.999-7.7061c6.8408,0.3945,24.915,2.8906,24.7764,7.7061h-13.4971l-8.3252,85.0391
			h13.7168c0,11.7422-9.5166,21.2588-21.2588,21.2588C75.5747,116.1646,66.0552,106.6479,66.0552,94.9058z"/>
		<g>
			<g>
				
					<line fill="none" stroke="#939598" stroke-width="0.5" stroke-miterlimit="10" x1="78.7661" y1="9.8667" x2="84.7661" y2="9.8667"/>
				
					<line fill="none" stroke="#939598" stroke-width="0.5" stroke-miterlimit="10" stroke-dasharray="6.2085,3.1042" x1="87.8706" y1="9.8667" x2="95.6313" y2="9.8667"/>
				
					<line fill="none" stroke="#939598" stroke-width="0.5" stroke-miterlimit="10" x1="97.1831" y1="9.8667" x2="103.1831" y2="9.8667"/>
			</g>
		</g>
	</g>
	<g>
		
			<radialGradient id="SVGID_6_" cx="105.8472" cy="94.7935" r="21.2588" gradientTransform="matrix(-1 0 0 1 137.583 0)" gradientUnits="userSpaceOnUse">
			<stop  offset="0.1232" style="stop-color:#BCBEC0"/>
			<stop  offset="1" style="stop-color:#231F20"/>
		</radialGradient>
		<circle fill="url(#SVGID_6_)" cx="31.7363" cy="94.7935" r="21.2588"/>
		
			<radialGradient id="SVGID_7_" cx="105.8491" cy="94.7935" r="9.2129" gradientTransform="matrix(-1 0 0 1 137.583 0)" gradientUnits="userSpaceOnUse">
			<stop  offset="0.202" style="stop-color:#58595B"/>
			<stop  offset="0.9113" style="stop-color:#FFFFFF"/>
		</radialGradient>
		<path fill="url(#SVGID_7_)" d="M22.5225,94.7935c0,5.084,4.125,9.2139,9.2129,9.2139c5.0898,0,9.2109-4.1299,9.2109-9.2139
			s-4.1211-9.2134-9.2109-9.2134C26.6475,85.5801,22.5225,89.7095,22.5225,94.7935z"/>
		<circle fill="#FFFFFF" cx="31.7354" cy="94.7935" r="2.834"/>
		<circle fill="#231F20" cx="31.7363" cy="94.7935" r="1.417"/>
		<rect x="10.4775" y="70.6406" fill="#FFFFFF" width="42.5176" height="24.1528"/>
		
			<linearGradient id="SVGID_8_" gradientUnits="userSpaceOnUse" x1="105.8472" y1="92.3433" x2="105.8472" y2="94.7925" gradientTransform="matrix(-1 0 0 1 137.583 0)">
			<stop  offset="0" style="stop-color:#FFFFFF"/>
			<stop  offset="0.7685" style="stop-color:#231F20"/>
		</linearGradient>
		<rect x="30.3193" y="92.3442" fill="url(#SVGID_8_)" width="2.834" height="2.4492"/>
	</g>
	<g>
		<path fill="none" stroke="#231F20" stroke-width="0.5" stroke-miterlimit="10" d="M52.9951,94.9058H36.9482l3.3359-85.0391h8.8613
			c0.1523-7.7061-15.7715-8.0635-21.998-7.7061C20.3057,2.5552,2.2314,5.0513,2.3701,9.8667h13.498l8.3242,85.0391H10.4756
			c0,11.7422,9.5176,21.2588,21.2598,21.2588C43.4756,116.1646,52.9951,106.6479,52.9951,94.9058z"/>
		<g>
			<g>
				
					<line fill="none" stroke="#939598" stroke-width="0.5" stroke-miterlimit="10" x1="40.2842" y1="9.8667" x2="34.2842" y2="9.8667"/>
				
					<line fill="none" stroke="#939598" stroke-width="0.5" stroke-miterlimit="10" stroke-dasharray="6.208,3.104" x1="31.1802" y1="9.8667" x2="23.4204" y2="9.8667"/>
				
					<line fill="none" stroke="#939598" stroke-width="0.5" stroke-miterlimit="10" x1="21.8682" y1="9.8667" x2="15.8682" y2="9.8667"/>
			</g>
		</g>
	</g>
</g>
<g>
</g>
<g>
</g>
<g>
</g>
<g>
</g>
<g>
</g>
<g>
</g>
</svg>
